HIERARCHY
ROOT Hips
{
  OFFSET 0 0 0
  CHANNELS 6 Xposition Yposition Zposition Zrotation Yrotation Xrotation
  JOINT LeftThigh
  {
    OFFSET 8.409438 0 -5.917753
    CHANNELS 3 Zrotation Yrotation Xrotation
    JOINT LeftLeg
    {
      OFFSET 0 0 -42.358652
      CHANNELS 3 Zrotation Yrotation Xrotation
      JOINT LeftFoot
      {
        OFFSET 0 0 -39.357303
        CHANNELS 3 Zrotation Yrotation Xrotation
      }
    }
  }
  JOINT RightThigh
  {
    OFFSET -8.409438 0 -5.917753
    CHANNELS 3 Zrotation Yrotation Xrotation
    JOINT RightLeg
    {
      OFFSET 0 0 -42.358652
      CHANNELS 3 Zrotation Yrotation Xrotation
      JOINT RightFoot
      {
        OFFSET 0 0 -39.357303
        CHANNELS 3 Zrotation Yrotation Xrotation
      }
    }
  }
  JOINT SpineLow
  {
    OFFSET 0 0 4.719101
    CHANNELS 3 Zrotation Yrotation Xrotation
    JOINT SpineMid
    {
      OFFSET 0 0 12.899191
      CHANNELS 3 Zrotation Yrotation Xrotation
      JOINT Chest
      {
        OFFSET 0 0 12.899191
        CHANNELS 3 Zrotation Yrotation Xrotation
        JOINT LeftShoulder
        {
          OFFSET 7.550562 1.41573 9.438202
          CHANNELS 3 Zrotation Yrotation Xrotation
          JOINT LeftArm
          {
            OFFSET 9.155056 0 4.247191
            CHANNELS 3 Zrotation Yrotation Xrotation
            JOINT LeftForearm
            {
              OFFSET 0 0 25.771955
              CHANNELS 3 Zrotation Yrotation Xrotation
              JOINT LeftHand
              {
                OFFSET 0 0 25.197169
                CHANNELS 3 Zrotation Yrotation Xrotation
              }
            }
          }
        }
        JOINT RightShoulder
        {
          OFFSET -7.550562 1.41573 9.438202
          CHANNELS 3 Zrotation Yrotation Xrotation
          JOINT RightArm
          {
            OFFSET -9.155056 0 4.247191
            CHANNELS 3 Zrotation Yrotation Xrotation
            JOINT RightForearm
            {
              OFFSET 0 0 -25.771955
              CHANNELS 3 Zrotation Yrotation Xrotation
              JOINT RightHand
              {
                OFFSET 0 0 -25.197169
                CHANNELS 3 Zrotation Yrotation Xrotation
              }
            }
          }
        }
        JOINT Neck
        {
          OFFSET 0 0 15.101124
          CHANNELS 3 Zrotation Yrotation Xrotation
          JOINT Head
          {
            OFFSET 0 0 11.325843
            CHANNELS 3 Zrotation Yrotation Xrotation
            End Site
            {
              OFFSET 0 0 14.157303
            }
          }
        }
      }
    }
  }
}
MOTION
Frames: 17
Frame Time: 0.0
0.0  89.887642  0.0  -85.146937  34.219876  -173.041008  9.880994  -60.207099  -21.77514  -11.764924  10.20229  28.327839  6.850781  -0.698958  5.120668  -45.902907  24.082863  -51.226269  -5.280966  -0.609384  26.721741  -1.38464  4.514518  -0.609607  -1.291315  -2.61004  -0.703966  -3.465656  -7.168989  -1.790264  -3.465656  -7.16899  -1.790264  -12.280072  18.620404  5.624334  106.626702  70.682727  -156.524765  -23.920174  -3.632131  68.586936  77.708988  -8.569318  19.38734  -27.475526  17.086402  9.039828  97.031778  21.063433  57.916498  -33.364676  -27.838096  -24.842438  66.6174  3.023838  -10.978728  -37.926668  9.835095  19.90696  -28.732989  6.176359  15.581339  
0.0  89.887642  0.0  -83.945144  33.024551  -173.371992  5.102942  -62.340469  -16.433233  -10.578845  11.293299  28.568763  7.179707  -0.511456  5.157007  -41.905005  25.663539  -48.208184  -6.25055  -1.337289  26.729202  -1.0559  4.734614  -0.700521  -1.264186  -2.763364  -0.468691  -3.415434  -7.575287  -1.140364  -3.415434  -7.575287  -1.140364  -12.308524  18.646169  5.463551  107.094473  69.836116  -155.046946  -23.061968  -4.584674  68.144006  78.32283  -8.469525  18.463496  -27.490625  16.978385  8.971826  96.631227  21.839749  58.004784  -34.285935  -28.581461  -26.559272  65.70825  2.82875  -11.239168  -37.666276  9.763187  19.400633  -28.526573  6.161328  15.191517  
0.0  89.887642  0.0  -81.811735  32.66639  -171.742991  3.696142  -63.191784  -13.9471  -9.737045  12.412285  28.597087  7.526136  -0.254616  5.099249  -37.450638  27.144201  -46.441322  -7.343687  -1.767169  26.631446  -0.899982  4.686118  -0.679421  -1.125011  -2.809265  -0.448493  -3.035362  -7.697589  -1.099025  -3.035362  -7.697589  -1.099025  -12.735815  18.766752  5.034965  109.399195  68.948313  -152.253901  -21.681011  -4.830838  67.683446  78.671802  -8.312819  18.13356  -27.201034  16.728963  9.033201  95.632518  23.210508  58.320631  -34.66439  -29.772759  -28.829108  65.023297  2.642118  -11.641928  -37.542094  9.669933  18.986812  -28.423785  6.120045  14.872801  
0.0  89.887642  0.0  -78.711659  33.048115  -169.869425  3.278147  -63.046053  -11.668874  -9.088199  13.595615  28.64828  7.868419  -0.096596  5.051418  -33.111578  28.463971  -46.001113  -7.553978  -1.410658  27.55614  -1.227678  4.253155  -0.545763  -0.942527  -2.756883  -0.3966  -2.541053  -7.549642  -0.97998  -2.541053  -7.549642  -0.979981  -13.20432  19.255262  4.817922  112.371139  68.407382  -149.211241  -20.245952  -4.365608  67.271038  78.67179  -8.156411  18.221887  -27.002071  16.934463  9.154197  94.417057  25.021977  58.198165  -34.466484  -30.740376  -31.480622  64.504319  2.439191  -12.010544  -37.493664  9.756773  18.665861  -28.38275  6.206651  14.635509  
0.0  89.887642  0.0  -76.053406  33.165363  -168.381615  4.044458  -62.885164  -10.741164  -8.659755  14.52022  28.893098  7.805712  -0.077312  4.993527  -29.145352  29.512464  -45.013615  -8.322424  -1.260467  28.975565  -1.319475  4.398679  -0.288424  -0.893538  -2.757429  -0.349721  -2.412003  -7.548772  -0.856969  -2.412003  -7.548771  -0.856969  -13.420122  20.087332  5.118796  114.69304  68.193935  -146.861817  -18.926793  -3.659505  66.894745  78.627045  -8.050262  18.549262  -26.339012  17.228657  9.625893  93.560958  27.394969  56.820258  -34.837905  -31.047387  -32.641841  64.153615  2.222119  -12.087961  -37.425284  10.022415  18.533008  -28.333344  6.417269  14.5492  
0.0  89.887642  0.0  -74.536965  33.341987  -167.451154  5.995446  -62.430992  -11.789721  -8.956894  15.06342  29.284639  7.661276  -0.014091  4.982424  -27.194486  29.93076  -45.529529  -8.858383  -1.288294  31.980744  -1.815673  4.212247  -0.251891  -1.080295  -2.790384  -0.366325  -2.922401  -7.64172  -0.879598  -2.922401  -7.64172  -0.879598  -13.312747  21.175804  5.67392  116.13812  67.902105  -145.341249  -17.758923  -3.192193  66.454583  78.686473  -8.071121  19.011519  -25.374773  17.755176  10.087488  91.861473  29.03625  55.907411  -34.096469  -30.633622  -35.706578  63.960022  1.954077  -11.706526  -37.257347  10.495022  18.552452  -28.215622  6.777702  14.586689  
0.0  89.887642  0.0  -73.316286  33.673885  -166.679493  8.758743  -61.480692  -13.800518  -10.190613  15.468219  29.616958  7.956021  0.049635  5.081002  -27.706574  29.122767  -48.260773  -8.020033  -1.391178  36.54171  -2.388579  4.02548  -0.189804  -1.3794  -2.810667  -0.40399  -3.738833  -7.7027  -0.946913  -3.738833  -7.7027  -0.946913  -12.993312  22.319311  6.257951  116.584821  67.584051  -144.806209  -16.774967  -3.13333  66.010869  78.667674  -8.197544  19.408472  -24.283606  18.397858  10.459104  90.503441  30.308722  54.865213  -33.431557  -29.782139  -38.939691  63.776918  1.570867  -10.739506  -36.99577  11.03752  18.651266  -28.03041  7.188831  14.6852  
0.0  89.887642  0.0  -72.051185  34.019973  -165.970748  11.337022  -60.442129  -15.514421  -11.545165  15.814937  29.917564  8.317142  0.09287  5.200062  -29.662596  26.699805  -51.338397  -5.807392  -1.212893  41.211435  -2.774586  3.758796  -0.111856  -1.692272  -2.796874  -0.366317  -4.602071  -7.666204  -0.807676  -4.602072  -7.666203  -0.807676  -12.626249  23.126559  6.661032  115.468804  67.443808  -145.507671  -16.133798  -3.710035  65.579546  78.529602  -8.402987  19.659521  -23.361556  18.669114  10.663743  89.538007  31.520662  53.844163  -33.020576  -28.648746  -42.307867  63.506529  0.916853  -9.289315  -36.747669  11.294228  18.713618  -27.85005  7.386094  14.740513  
0.0  89.887642  0.0  -70.72124  34.410642  -165.299279  12.916739  -59.556645  -16.284807  -12.525411  16.223981  30.235842  8.657106  0.105937  5.302148  -32.245616  23.162267  -54.22497  -2.71151  -0.963684  45.836757  -3.032991  3.513185  -0.017993  -1.960725  -2.751012  -0.26094  -5.350998  -7.535054  -0.490916  -5.350998  -7.535054  -0.490915  -12.638293  23.636768  6.844212  113.028402  67.44692  -147.288446  -15.734213  -4.956646  65.218694  78.383625  -8.620009  19.652689  -22.954018  18.67733  10.519031  88.851591  32.535722  52.742449  -32.89645  -27.321412  -45.809456  63.125963  0.058364  -7.604455  -36.677051  11.244627  18.702915  -27.796208  7.351354  14.728213  
0.0  89.887642  0.0  -69.029904  34.712141  -164.511918  12.726206  -58.8318  -15.179355  -12.644794  16.488999  30.542368  8.891203  0.104631  5.35905  -34.331519  19.204864  -56.522627  0.535459  -0.688906  50.563616  -3.224267  3.367445  -0.031221  -2.158372  -2.691012  -0.097699  -5.911338  -7.357584  -0.026025  -5.911338  -7.357584  -0.026025  -12.966297  23.868875  6.780538  109.787563  67.382524  -149.792928  -15.619083  -6.690317  64.923427  78.333973  -8.821026  19.444756  -22.814006  18.512455  10.247243  88.120599  33.366672  51.419554  -33.006862  -25.744566  -49.412767  62.74185  -0.761537  -5.992335  -36.682522  10.988354  18.620087  -27.794529  7.162706  14.652249  
0.0  89.887642  0.0  -67.23137  34.979119  -163.767705  10.383744  -58.135767  -12.086847  -11.861287  16.553054  30.830297  9.09816  0.109971  5.345018  -35.65909  15.581079  -58.178198  3.209926  -0.353966  55.280328  -3.340549  3.238064  -0.007197  -2.335917  -2.649934  0.069787  -6.41631  -7.228742  0.448863  -6.41631  -7.228742  0.448863  -13.455499  24.1366  6.688024  106.51772  67.199984  -152.48348  -14.312369  -9.914974  62.989615  76.571864  -10.646661  18.777203  -22.859632  18.524432  10.061339  87.365233  34.082628  49.765088  -33.264139  -23.943781  -53.012356  62.499643  -1.359687  -4.630109  -36.688392  10.811201  18.454692  -27.792634  7.038691  14.518548  
0.0  89.887642  0.0  -65.13517  35.143822  -162.714466  7.421028  -57.401384  -8.366388  -10.563453  16.579594  31.054086  9.465406  0.129876  5.410136  -35.932863  12.741744  -59.511085  4.660294  0.054512  60.072561  -3.286011  3.093316  -0.010099  -2.49704  -2.636994  0.200789  -6.872307  -7.178208  0.824142  -6.872307  -7.178209  0.824142  -13.887083  24.421734  6.559493  103.890565  66.895625  -154.782611  -14.76719  -11.38427  62.917064  76.806519  -10.828457  18.436799  -22.813107  18.74959  9.980165  86.70573  34.682829  47.878264  -33.692503  -22.048128  -56.477056  62.438039  -1.619638  -3.648105  -36.549154  10.806466  18.223456  -27.683447  7.052865  14.341661  
0.0  89.887642  0.0  -62.912981  35.095946  -160.88424  4.910508  -56.451591  -5.171794  -9.01076  16.410106  31.038652  9.704122  0.212366  5.399749  -35.575038  10.193109  -61.212974  5.286087  0.569281  65.006431  -3.070902  2.756468  0.094522  -2.659116  -2.670447  0.228797  -7.320966  -7.263868  0.922339  -7.320966  -7.263869  0.922339  -14.155601  24.639381  6.33184  102.518436  66.405917  -156.177013  -15.386747  -12.432679  63.04059  77.064975  -10.962753  18.265277  -22.557393  18.912552  9.866721  86.289421  35.069716  45.977044  -34.278797  -20.04634  -59.743414  62.533258  -1.449274  -3.049088  -36.063  10.883047  17.987652  -27.31575  7.138299  14.158309  
0.0  89.887642  0.0  -60.215154  34.750469  -158.04158  3.82621  -55.336326  -3.262215  -7.932331  16.25266  30.832267  10.107728  0.463623  5.398664  -34.690789  7.579274  -63.430755  5.54463  0.67859  70.110669  -2.834703  2.436653  0.14764  -2.768408  -2.741215  0.188102  -7.618438  -7.459809  0.831286  -7.618438  -7.45981  0.831287  -14.283474  24.682303  5.961391  102.540348  65.892992  -156.52451  -16.175741  -12.995599  63.429946  77.241365  -11.015313  18.311266  -22.344645  19.015941  9.435228  86.347077  35.184988  43.974092  -35.045475  -17.888054  -62.755033  62.738569  -0.868928  -2.701334  -35.442263  11.002222  17.674422  -26.846305  7.263647  13.916135  
0.0  89.887642  0.0  -56.438784  34.140464  -154.51664  3.6742  -53.639727  -1.618787  -7.160171  15.860449  30.530594  10.708696  0.803704  5.553072  -32.884968  5.258063  -65.71061  5.710686  0.40516  75.193673  -2.52253  2.127358  0.202273  -2.780045  -2.768449  0.157762  -7.647733  -7.537464  0.752714  -7.647733  -7.537465  0.752714  -14.156304  24.598119  5.71936  103.990604  65.459633  -155.928428  -16.977727  -13.056408  64.133074  77.296528  -10.989223  18.486307  -21.166263  17.999371  9.126526  86.493751  35.052958  42.917408  -35.952496  -15.554798  -65.436324  63.070863  -0.013049  -2.367773  -34.38878  11.107059  17.477029  -26.055288  7.382738  13.750689  
0.0  89.887642  0.0  -51.927406  33.274549  -150.858889  3.868656  -51.410189  0.283659  -6.660779  15.413961  30.164503  11.569366  1.154803  5.733614  -30.273242  3.372211  -67.736613  5.636388  0.027612  80.255845  -1.969499  1.822623  0.196207  -2.757627  -2.740075  0.215759  -7.591935  -7.453689  0.905709  -7.591934  -7.453688  0.905709  -13.756398  24.139695  5.118189  106.965909  64.767829  -154.224447  -17.706265  -12.72105  65.144857  77.203749  -10.817928  18.757547  -20.773862  17.682046  8.267869  87.645285  34.695319  40.890405  -36.936354  -13.135864  -67.796674  63.416492  0.925161  -1.859751  -33.155671  11.253543  17.175354  -25.128306  7.542949  13.50499  
0.0  89.887642  0.0  -47.185314  32.208213  -147.301217  4.54682  -48.905992  2.143144  -6.140521  14.863709  29.692645  12.294427  1.428609  5.930572  -27.29274  1.769884  -69.704573  5.393688  -0.540162  85.438176  -1.474065  1.48485  0.133101  -2.798642  -2.664943  0.313762  -7.712865  -7.236491  1.169791  -7.712865  -7.236491  1.169791  -12.849978  23.646322  4.599147  110.941117  64.063983  -152.033414  -18.35291  -12.096927  66.422879  76.958269  -10.471282  19.154645  -19.923825  17.134673  7.296383  89.380887  34.128208  39.020969  -37.899614  -10.716417  -69.854735  63.681284  1.766049  -1.089535  -31.41481  11.449794  16.840828  -23.821546  7.754381  13.225611  
